HIERARCHY
ROOT Hips
{
 OFFSET 0.000000 0.000000 0.000000
 CHANNELS 6 Xposition Yposition Zposition Yrotation Xrotation Zrotation
 JOINT Chest
 {
  OFFSET 0.000000 9.303000 0.001900
  CHANNELS 3 Yrotation Xrotation Zrotation
  JOINT Chest2
  {
   OFFSET 0.000000 9.301100 -0.003900
   CHANNELS 3 Yrotation Xrotation Zrotation
   JOINT Chest3
   {
    OFFSET 0.000000 9.262800 0.000000
    CHANNELS 3 Yrotation Xrotation Zrotation
    JOINT Chest4
    {
     OFFSET 0.000000 9.253300 0.000000
     CHANNELS 3 Yrotation Xrotation Zrotation
     JOINT Neck
     {
      OFFSET 0.000000 14.010300 0.000000
      CHANNELS 3 Yrotation Xrotation Zrotation
      JOINT Head
      {
       OFFSET 0.000000 8.657600 -0.008300
       CHANNELS 3 Yrotation Xrotation Zrotation
       End Site
       {
        OFFSET 0.000000 16.540200 -0.004400
       }
      }
     }
     JOINT RightCollar
     {
      OFFSET -2.834100 9.267700 0.000000
      CHANNELS 3 Yrotation Xrotation Zrotation
      JOINT RightShoulder
      {
       OFFSET -13.135200 0.000000 0.000000
       CHANNELS 3 Yrotation Xrotation Zrotation
       JOINT RightElbow
       {
        OFFSET 0.000000 -28.893500 0.000000
        CHANNELS 3 Yrotation Xrotation Zrotation
        JOINT RightWrist
        {
         OFFSET 0.000000 -23.344000 0.000000
         CHANNELS 3 Yrotation Xrotation Zrotation
         End Site
         {
          OFFSET 0.000000 -17.223000 0.000000
         }
        }
       }
      }
     }
     JOINT LeftCollar
     {
      OFFSET 2.834100 9.267700 0.000000
      CHANNELS 3 Yrotation Xrotation Zrotation
      JOINT LeftShoulder
      {
       OFFSET 13.135200 0.000000 0.000000
       CHANNELS 3 Yrotation Xrotation Zrotation
       JOINT LeftElbow
       {
        OFFSET 0.000000 -28.893500 0.000000
        CHANNELS 3 Yrotation Xrotation Zrotation
        JOINT LeftWrist
        {
         OFFSET 0.000000 -23.344000 0.000000
         CHANNELS 3 Yrotation Xrotation Zrotation
         End Site
         {
          OFFSET 0.000000 -17.223000 0.000000
         }
        }
       }
      }
     }
    }
   }
  }
 }
 JOINT RightHip
 {
  OFFSET -7.547200 -0.009500 -0.001000
  CHANNELS 3 Yrotation Xrotation Zrotation
  JOINT RightKnee
  {
   OFFSET 0.000000 -39.762800 0.000900
   CHANNELS 3 Yrotation Xrotation Zrotation
   JOINT RightAnkle
   {
    OFFSET 0.000000 -38.588200 0.001600
    CHANNELS 3 Yrotation Xrotation Zrotation
    JOINT RightToe
    {
     OFFSET 0.000000 -4.693300 10.419700
     CHANNELS 3 Yrotation Xrotation Zrotation
     End Site
     {
      OFFSET 0.000000 -1.379900 5.669300
     }
    }
   }
  }
 }
 JOINT LeftHip
 {
  OFFSET 7.547200 -0.009500 -0.001000
  CHANNELS 3 Yrotation Xrotation Zrotation
  JOINT LeftKnee
  {
   OFFSET 0.000000 -39.762800 0.000900
   CHANNELS 3 Yrotation Xrotation Zrotation
   JOINT LeftAnkle
   {
    OFFSET 0.000000 -38.588200 0.001600
    CHANNELS 3 Yrotation Xrotation Zrotation
    JOINT LeftToe
    {
     OFFSET 0.000000 -4.693300 10.419700
     CHANNELS 3 Yrotation Xrotation Zrotation
     End Site
     {
      OFFSET 0.000000 -1.379900 5.669300
     }
    }
   }
  }
 }
}
MOTION
Frames: 9
Frame Time: 0.008333
5.261201 45.834571 8.711472 162.694893 -39.955760 0.236150 2.568419 18.276625 2.189987 0.278375 2.131971 0.225705 0.482680 3.482283 0.368068 2.466300 15.938808 1.977203 4.860501 24.731954 -0.663941 5.460633 1.215511 -1.824033 19.835699 1.157916 -15.673493 3.426014 -41.326178 -20.480868 165.515359 -69.384721 -166.611721 -11.738244 -20.016273 -35.764626 -19.531987 -6.195040 1.638476 2.991737 -38.607254 11.929519 154.187020 -62.167000 -160.971476 7.148268 -26.775836 35.109658 -0.219797 -48.264477 1.537798 -43.106102 83.827193 -43.505748 -8.955470 -2.590475 0.520747 0.017311 0.193736 0.116407 -10.008542 -44.724787 20.940428 62.556033 70.436026 63.815103 -7.211954 1.291828 -6.492897 -0.134396 -0.109197 -0.081156
5.227195 45.857735 8.769805 162.800692 -40.136721 0.193799 2.531382 18.353245 2.162319 0.241438 2.213926 0.245288 0.532751 3.438758 0.341322 2.424884 16.006914 2.009256 5.120238 24.813312 -0.712713 5.750882 1.319987 -1.896915 19.950082 1.226196 -15.704061 3.386880 -41.447701 -20.183283 165.278800 -69.086819 -166.375530 -11.716162 -20.160508 -35.852879 -19.522401 -6.198680 1.592001 2.846784 -38.514207 11.524524 154.133880 -62.138130 -160.827980 7.199041 -27.127507 35.447310 -0.180159 -48.041845 1.568064 -42.897976 83.679647 -43.381496 -9.054427 -2.516634 0.622078 0.019226 0.187171 0.106275 -9.973776 -44.540066 20.783734 62.242559 70.337602 63.483226 -7.195374 1.397063 -6.439979 -0.164953 -0.114801 -0.077027
5.195039 45.880765 8.824812 162.876261 -40.318762 0.162042 2.520346 18.429978 2.141830 0.277442 2.169618 0.226728 0.496432 3.527624 0.362783 2.411070 16.079368 2.007322 5.371428 24.865982 -0.732625 6.037043 1.422194 -1.971406 20.061118 1.267122 -15.715708 3.393587 -41.559493 -19.910855 164.936345 -68.822626 -166.068194 -11.681736 -20.300816 -35.910721 -19.531679 -6.211989 1.582001 2.651213 -38.406051 11.139282 154.116729 -62.142606 -160.690994 7.241294 -27.471733 35.770280 -0.130143 -47.811635 1.614984 -42.738485 83.525464 -43.302570 -9.152645 -2.496676 0.672268 0.051000 0.228007 0.143700 -9.938067 -44.357839 20.659258 62.008614 70.263275 63.224229 -7.190271 1.486042 -6.381266 -0.179954 -0.122635 -0.085091
5.165395 45.903089 8.876581 162.961141 -40.499335 0.111293 2.506575 18.499428 2.131422 0.289454 2.163992 0.220452 0.482783 3.573260 0.370264 2.401783 16.145644 2.006876 5.610112 24.916368 -0.752870 6.315933 1.521900 -2.043987 20.143735 1.300884 -15.722821 3.484941 -41.648471 -19.677878 164.511435 -68.588372 -165.711192 -11.637972 -20.433335 -35.941179 -19.544821 -6.214526 1.569277 2.417050 -38.291428 10.775021 154.166981 -62.187660 -160.595271 7.264000 -27.798147 36.085160 -0.104856 -47.588958 1.676273 -42.608998 83.382999 -43.259256 -9.202546 -2.444061 0.751983 0.071386 0.231268 0.154943 -9.925015 -44.178075 20.558609 61.798226 70.199349 62.983391 -7.167842 1.566882 -6.328787 -0.210242 -0.127376 -0.085350
5.137784 45.924577 8.924272 163.049857 -40.680365 0.050008 2.489678 18.563462 2.126629 0.288246 2.177677 0.220497 0.480762 3.594918 0.370251 2.391873 16.208818 2.003485 5.842143 24.962433 -0.769589 6.588522 1.620406 -2.113873 20.226345 1.337935 -15.732214 3.626524 -41.720661 -19.475971 164.026672 -68.382294 -165.323229 -11.592872 -20.549796 -35.937895 -19.547616 -6.206627 1.553682 2.164136 -38.180620 10.427376 154.288368 -62.279268 -160.562602 7.259468 -28.101800 36.401135 -0.091216 -47.370069 1.747399 -42.513975 83.250475 -43.248011 -9.262006 -2.379116 0.844592 0.112518 0.216503 0.151954 -9.933465 -43.998382 20.483033 61.618891 70.148821 62.764164 -7.143057 1.642416 -6.275862 -0.243151 -0.134775 -0.087059
5.110791 45.943464 8.968767 163.133521 -40.848229 -0.008021 2.470490 18.613178 2.120186 0.286343 2.189436 0.220391 0.477505 3.613602 0.369966 2.385854 16.257889 1.993538 6.066374 25.015252 -0.773964 6.857409 1.718744 -2.179930 20.309735 1.383824 -15.738186 3.803975 -41.781338 -19.300101 163.503971 -68.210200 -164.909188 -11.551706 -20.646793 -35.902146 -19.530918 -6.181663 1.535858 1.904469 -38.080895 10.095202 154.454683 -62.422056 -160.585085 7.226337 -28.389659 36.722181 -0.068683 -47.166044 1.812648 -42.424049 83.128468 -43.231907 -9.342363 -2.340794 0.903584 0.121196 0.221641 0.173714 -9.960918 -43.831652 20.435586 61.472640 70.113862 62.561270 -7.132241 1.712475 -6.227892 -0.260520 -0.144816 -0.085345
5.088037 45.963317 9.006108 163.181554 -41.038835 -0.055198 2.476647 18.687452 2.127081 0.276674 2.225189 0.227307 0.480147 3.603768 0.362028 2.370266 16.299360 1.984367 6.293733 25.070373 -0.774545 7.123379 1.817227 -2.238436 20.411567 1.433215 -15.751576 3.993141 -41.836743 -19.143128 162.966002 -68.077349 -164.465961 -11.510840 -20.722439 -35.849654 -19.476421 -6.152842 1.509913 1.639204 -37.995056 9.786213 154.641122 -62.615013 -160.643078 7.170171 -28.667306 37.048121 -0.025520 -46.944614 1.890275 -42.353911 83.019953 -43.219640 -9.489520 -2.303407 0.955232 0.111960 0.221591 0.188891 -9.950368 -43.645569 20.378594 61.384899 70.086013 62.461867 -7.137667 1.745086 -6.225028 -0.257720 -0.146903 -0.067162
5.059258 45.976895 9.041296 163.308402 -41.185193 -0.113002 2.406636 18.722427 2.089547 0.273863 2.233222 0.227069 0.475483 3.616333 0.361498 2.337367 16.287530 1.940552 6.549825 25.168740 -0.727134 7.385794 1.915522 -2.286456 20.535558 1.520085 -15.720288 4.182869 -41.890341 -19.008417 162.438914 -67.984941 -164.008200 -11.468321 -20.777633 -35.793730 -19.387039 -6.067174 1.492124 1.364178 -37.921886 9.514256 154.831206 -62.853814 -160.717094 7.102338 -28.931061 37.371154 0.009001 -46.774187 1.880346 -42.500728 82.928924 -43.373340 -9.656981 -2.307328 0.960112 0.155587 0.233661 0.213065 -9.958827 -43.521328 20.279321 61.248088 70.052115 62.267853 -7.085699 1.824036 -6.169072 -0.319738 -0.156383 -0.035887
5.026203 45.985681 9.072634 163.397868 -41.301201 -0.110390 2.356041 18.732167 2.016264 0.278058 2.213198 0.219652 0.463688 3.651004 0.368389 2.308687 16.292924 1.921643 6.786530 25.242300 -0.700017 7.642554 2.010087 -2.324312 20.654979 1.598453 -15.718049 4.377066 -41.940892 -18.909717 161.950196 -67.938075 -163.568191 -11.428610 -20.819702 -35.739425 -19.289138 -6.012618 1.449621 1.072277 -37.856702 9.300432 155.003295 -63.137212 -160.787645 7.031433 -29.178161 37.679866 0.059850 -46.648935 1.824879 -42.131413 82.903639 -43.093833 -9.744264 -2.269005 1.063650 0.121799 0.228047 0.189446 -9.944110 -43.420124 20.169395 61.147706 70.026191 62.071057 -7.048783 1.885362 -6.061929 -0.366026 -0.161456 -0.062525
